<svg id="Layer_1" data-name="Layer 1" xmlns="http://www.w3.org/2000/svg" viewBox="0 0 600 600"><defs><style>.cls-1{fill:#4d708c;}</style></defs><title>ourwave-logos</title><path class="cls-1" d="M308,432.92a13,13,0,0,1-2.47-.23,57.33,57.33,0,0,1-7.11-1.87c-32.39-10.81-58.33-51.05-59-91.62-.53-29.76,12.51-60.41,35.76-84.08,19.91-20.26,44.12-31.88,66.42-31.88a13,13,0,0,1,0,26.07c-15.13,0-33,9-47.82,24.08-18.12,18.44-28.7,42.87-28.3,65.35.59,33.3,21.86,60.89,41.23,67.35a29.06,29.06,0,0,0,3.76,1A13,13,0,0,1,308,432.92Z"/><path class="cls-1" d="M300,434c-76.64,0-139-62.36-139-139,0-1.29,0-2.58.05-3.86v-.09a12.85,12.85,0,0,1,.13-3.23C164.93,214.5,225.76,156,300,156c76.64,0,139,62.36,139,139S376.64,434,300,434ZM187.24,301.3a112.93,112.93,0,0,0,215.82,39.86H355.37a57.41,57.41,0,0,1-36-102.16,78.33,78.33,0,0,0-72.77,27A103.62,103.62,0,0,1,187.24,301.3Zm179.25-55.17a13,13,0,0,1-11.12,6.23,31.37,31.37,0,0,0,0,62.73h55.77A112.94,112.94,0,0,0,189,274a77.8,77.8,0,0,0,37.61-24.8,104.48,104.48,0,0,1,135.88-21.16,13,13,0,0,1,4,18Z"/></svg>